<svg role="img" viewBox="0 0 24 24" fill="#00ffff" xmlns="http://www.w3.org/2000/svg">
  <title>GitHub</title>
  <path d="M12 0C5.37 0 0 5.37 0 12c0 5.3 3.438 9.8 8.205 11.387.6.11.82-.258.82-.577v-2.165c-3.338.727-4.033-1.415-4.033-1.415-.546-1.39-1.333-1.76-1.333-1.76-1.088-.745.083-.73.083-.73 1.205.086 1.84 1.235 1.84 1.235 1.07 1.834 2.81 1.304 3.495.997.107-.775.418-1.305.76-1.605-2.665-.3-5.467-1.332-5.467-5.93 0-1.31.468-2.38 1.235-3.22-.124-.303-.535-1.52.117-3.176 0 0 1.008-.323 3.3 1.23a11.52 11.52 0 013.003-.404c1.02.005 2.047.138 3.003.404 2.29-1.553 3.296-1.23 3.296-1.23.653 1.657.243 2.874.12 3.176.77.84 1.234 1.91 1.234 3.22 0 4.61-2.807 5.625-5.48 5.922.43.37.823 1.1.823 2.222v3.293c0 .32.218.694.825.576C20.565 21.796 24 17.3 24 12c0-6.63-5.37-12-12-12z"/>
</svg>

