<svg role="img" viewBox="0 0 24 24" fill="#00ffff" xmlns="http://www.w3.org/2000/svg">
  <title>Instagram</title>
  <path d="M7.75 2h8.5A5.75 5.75 0 0122 7.75v8.5A5.75 5.75 0 0116.25 22h-8.5A5.75 5.75 0 012 16.25v-8.5A5.75 5.75 0 017.75 2zm0 2A3.75 3.75 0 004 7.75v8.5A3.75 3.75 0 007.75 20h8.5a3.75 3.75 0 003.75-3.75v-8.5A3.75 3.75 0 0016.25 4h-8.5zm8.7 2.35a1.15 1.15 0 110 2.3 1.15 1.15 0 010-2.3zm-4.2 1.65a4.8 4.8 0 110 9.6 4.8 4.8 0 010-9.6zm0 2a2.8 2.8 0 100 5.6 2.8 2.8 0 000-5.6z"/>
</svg>

