<svg role="img" viewBox="0 0 24 24" fill="#00ffff" xmlns="http://www.w3.org/2000/svg">
  <title>LinkedIn</title>
  <path d="M22.23 0H1.77C.79 0 0 .77 0 1.72v20.56C0 23.23.79 24 1.77 24h20.45c.98 0 1.78-.77 1.78-1.72V1.72C24 .77 23.21 0 22.23 0zM7.12 20.45H3.56V9h3.56v11.45zM5.34 7.48c-1.14 0-2.07-.93-2.07-2.08a2.08 2.08 0 114.15 0c0 1.15-.93 2.08-2.08 2.08zM20.45 20.45h-3.56v-5.63c0-1.34-.03-3.07-1.87-3.07-1.88 0-2.17 1.47-2.17 2.98v5.72h-3.56V9h3.42v1.56h.05c.48-.9 1.66-1.85 3.41-1.85 3.64 0 4.31 2.4 4.31 5.52v6.77z"/>
</svg>

